<svg xmlns="http://www.w3.org/2000/svg" viewBox="0 0 70.3 55.15"><defs><style>.cls-1{fill:#7F00FF;}</style></defs><title>Asset 2cxlogofinal</title><g id="Layer_2" data-name="Layer 2"><g id="Layer_1-2" data-name="Layer 1"><g id="layer1"><g id="text3723"><path class="cls-1" d="M36.29,41.76c-3.82,9.65-14,13.39-20.52,13.39C5.11,55.16,0,50.41,0,37.44S6.26,0,25.13,0c6.77,0,12,2.66,12,9.65,0,3.82-1.37,6.62-5,6.62A5.18,5.18,0,0,1,28,14.4c1.73-.86,3.31-3.89,3.31-6.62,0-2.3-1.15-4.39-4.39-4.39C19,3.38,12,22.32,12,37c0,6.63,1.73,11.23,8.64,11.23a17.46,17.46,0,0,0,14-7.2Z"/><path class="cls-1" d="M61.71,41.19c.79,4.68,1.66,6.3,4.18,6.3A6.4,6.4,0,0,0,68.55,47c-.36,5.26-4.54,7.42-8.5,7.42-4.25,0-7.06-3.74-8.5-12.53L41.62,54H36.43L51,37.59l-1.15-8.1c-.72-4.82-1.44-6-2.74-6-2.81,0-7.13,5.73-9.61,17.61h-3c2.23-10.66,7.34-23.47,17-23.47,5.76,0,7.13,4.9,7.78,8.57L60,31.49c3.82-4.39,5.9-7.49,6-10.15a8,8,0,0,1-1.22.14c-2.52,0-3.38-1.8-3.38-4C61.4,15,63.7,14,66.3,14s4,3.46,4,6.55c0,4.46-3.17,8.21-9.65,15.27Z"/></g><g id="path4784"><path class="cls-1" d="M35,40.66c-.08.16-.16.32-.23.49l-.09.23a1.79,1.79,0,0,1-.13.22,5.52,5.52,0,0,1-.33.54l-.19.3-.18.26-.2.33c-.4.61,0-.06-.31.48a2.94,2.94,0,0,1-.2.33l-.06.1L33,44h0"/><path class="cls-1" d="M33.08,44.1l-.16-.21.06,0,0-.08a2.87,2.87,0,0,0,.2-.32l.06-.1h0l.15-.24h0l.1-.15.2-.33.37-.56a5.47,5.47,0,0,0,.32-.53,1.75,1.75,0,0,0,.13-.22l.09-.22c.07-.17.15-.34.23-.5l.23.12c-.08.16-.16.31-.23.48l-.09.23a1.85,1.85,0,0,1-.14.25,5.63,5.63,0,0,1-.33.54l-.57.88a3.1,3.1,0,0,1-.21.3l-.1.18a3,3,0,0,1-.21.34l-.09.13Z"/></g><g id="path4808"><path class="cls-1" d="M37.11,40.13v.28a.56.56,0,0,1,0,.09v.11a1.38,1.38,0,0,1-.06.23V41l-.06.13-.08.13-.06.12-.08.12-.07.11-.06.08v.08l-.08.08-.08.1a.82.82,0,0,1-.16.19l-.08.07-.15.15-.08.08-.07.07h-.22l-.08.06h0"/><path class="cls-1" d="M35.72,42.67l-.16-.21.12-.09h.21l.35-.34a.7.7,0,0,0,.13-.16l.14-.17v-.07l.23-.34.18-.34V40.8a1.22,1.22,0,0,0,.05-.21V40.5a.62.62,0,0,0,0-.08v-.29h.26v.28a.53.53,0,0,1,0,.1v.1a1.39,1.39,0,0,1-.06.25v.19l-.06.13-.34.55v.09l-.19.21a.87.87,0,0,1-.18.21l-.41.4h-.23Z"/></g><g id="path4818"><path class="cls-1" d="M36.5,40.59a.36.36,0,0,1,0,.16v.11a2.47,2.47,0,0,1-.13.33l-.15.32c0,.11-.14.24-.21.36l-.2.37-.2.36-.22.4-.13.25c-.35.6,0,0-.26.47l-.15.27-.06.12a.2.2,0,0,1-.08.19v.19h0"/><path class="cls-1" d="M34.84,44.49h-.26v-.26l.05,0a.07.07,0,0,0,0-.07v0l.23-.43.09-.17v0h0l.15-.26.75-1.38.08-.13a2.23,2.23,0,0,0,.13-.22l.15-.32a2.31,2.31,0,0,0,.12-.29v-.09a.32.32,0,0,0,0-.13l.25-.06a.49.49,0,0,1,0,.22v.12a2.47,2.47,0,0,1-.14.35l-.15.32a2.42,2.42,0,0,1-.14.25l-.07.12-.75,1.38-.15.26a2.09,2.09,0,0,1-.11.21l-.19.35a.33.33,0,0,1-.08.22Z"/></g><g id="path4820"><path class="cls-1" d="M37.23,40.49,35.08,41.8"/><rect class="cls-1" x="34.9" y="41.01" width="2.52" height="0.26" transform="translate(-16.08 24.67) rotate(-31.18)"/></g><g id="path4822"><path class="cls-1" d="M35.12,40.76a1.06,1.06,0,0,1-.08.31v.19h0"/><path class="cls-1" d="M35.17,41.26h-.26V41a.93.93,0,0,0,.07-.27l.26,0a1.18,1.18,0,0,1-.08.32Z"/></g><g id="path4824"><path class="cls-1" d="M35.83,40.38l-.53,1"/><polygon class="cls-1" points="35.41 41.44 35.19 41.32 35.72 40.32 35.95 40.44 35.41 41.44"/></g><g id="path4852"><path class="cls-1" d="M37.11,40.13a1.62,1.62,0,0,0-.13.23,1.79,1.79,0,0,1-.12.42l-.08.3a1.27,1.27,0,0,1-.1.37,4.21,4.21,0,0,1-.17.39c-.06.13-.11.27-.17.4a11.37,11.37,0,0,1-.74,1.32c-.12.18-.24.35-.37.52s-.73,1-1,1.31-.29.27-.42.42-.3.38-.47.55-.22.2-.33.3a4.3,4.3,0,0,1-.52.45l-.17.15-.12.07-.17.08"/><path class="cls-1" d="M32.08,47.53,32,47.29l.28-.15L32.4,47a4.21,4.21,0,0,0,.51-.44l.1-.09.23-.21c.11-.11.22-.24.32-.36l.15-.18a1.09,1.09,0,0,1,.14-.14,2.19,2.19,0,0,0,.28-.28c.2-.23.59-.76.82-1.07l.17-.23c.13-.17.25-.33.37-.51a11.36,11.36,0,0,0,.73-1.3l.08-.2.08-.2c.06-.13.12-.25.17-.38a1.14,1.14,0,0,0,.09-.34l.08-.32.05-.15a.79.79,0,0,0,.06-.23v-.05a1.82,1.82,0,0,1,.14-.25l.22.14a1.59,1.59,0,0,0-.11.19,1.05,1.05,0,0,1-.08.29l0,.13-.08.3a1.31,1.31,0,0,1-.11.39c0,.13-.11.27-.17.4l-.08.18-.09.21a11.64,11.64,0,0,1-.75,1.34c-.12.18-.24.36-.38.53l-.17.23c-.24.32-.63.85-.84,1.09a2.4,2.4,0,0,1-.3.31l-.12.11-.14.17a5,5,0,0,1-.33.38l-.24.23-.09.08a4.23,4.23,0,0,1-.53.46l-.16.14-.14.08Z"/></g><path class="cls-1" d="M37.43,41.13s-2.24,4.19-4,4a31.7,31.7,0,0,1,1-4.09"/></g></g></g></svg>